<?xml version="1.0" encoding="UTF-8"?>
<svg width="32px" height="32px" viewBox="0 0 32 32" version="1.1" xmlns="http://www.w3.org/2000/svg" xmlns:xlink="http://www.w3.org/1999/xlink">
    <!-- Generator: Sketch 59.1 (86144) - https://sketch.com -->
    <title>创建空白项目</title>
    <desc>Created with Sketch.</desc>
    <g id="创建空白项目" stroke="none" stroke-width="1" fill="none" fill-rule="evenodd">
        <g>
            <circle id="形状结合" fill="#7CAAFF" cx="16" cy="16" r="16"></circle>
            <g id="编组-5" transform="translate(8.727273, 13.818182)">
                <g id="编组-4"></g>
            </g>
        </g>
        <path d="M16,9.14285714 C16.6311826,9.14285714 17.1428571,9.65453171 17.1428571,10.2857143 L17.1418571,14.8568571 L21.7142857,14.8571429 C22.3454683,14.8571429 22.8571429,15.3688174 22.8571429,16 C22.8571429,16.6311826 22.3454683,17.1428571 21.7142857,17.1428571 L17.1418571,17.1418571 L17.1428571,21.7142857 C17.1428571,22.3454683 16.6311826,22.8571429 16,22.8571429 C15.3688174,22.8571429 14.8571429,22.3454683 14.8571429,21.7142857 L14.8568571,17.1418571 L10.2857143,17.1428571 C9.65453171,17.1428571 9.14285714,16.6311826 9.14285714,16 C9.14285714,15.3688174 9.65453171,14.8571429 10.2857143,14.8571429 L14.8568571,14.8568571 L14.8571429,10.2857143 C14.8571429,9.65453171 15.3688174,9.14285714 16,9.14285714 Z" id="形状结合" fill="#FFFFFF"></path>
    </g>
</svg>